<svg clip-rule="evenodd" fill-rule="evenodd" height="345.167532" stroke-linejoin="round" stroke-miterlimit="2" viewBox="0 0 63 75" width="289.714387" xmlns="http://www.w3.org/2000/svg"><path d="m0 0h63v74.2h-63z" fill="none"/><g fill-rule="nonzero"><path d="m62.166.824h-61.345v17.314h61.358z" fill="#af162f" transform="matrix(1.01046 0 0 1.03966 -.329446 -.357128)"/><path d="m11.111 33.018c2.507 1.198 4.797 2.6 6.789 4.192 1.504 1.198 2.927 2.504 4.241 3.893-2.141 4.6-3.401 9.527-3.74 14.563-3.062-4.274-7.059-7.5-12.209-9.841.692-5.308 2.954-9.785 4.919-12.807z" fill="#af162f" transform="matrix(1.04501 0 0 1.04501 -.637603 -1.99569)"/><path d="m30.827 53.175c-1.829-4.505-4.485-8.643-7.778-12.222.867-1.81 1.884-3.58 3.035-5.267 1.721-2.532 3.537-4.736 5.42-6.56 1.884 1.824 3.7 4.028 5.421 6.56 1.151 1.687 2.154 3.457 3.035 5.267-3.293 3.579-5.949 7.731-7.778 12.222-.244.585-.461 1.184-.678 1.769-.216-.585-.447-1.184-.677-1.769z" fill="#af162f" transform="matrix(1.0173 0 0 1.0173 -.544955 -.727109)"/><path d="m40.854 41.089c1.314-1.388 2.724-2.695 4.241-3.892 2.006-1.593 4.282-2.995 6.803-4.192 1.964 3.035 4.214 7.499 4.918 12.807-5.135 2.341-9.146 5.566-12.208 9.84-.353-5.036-1.613-9.963-3.754-14.563z" fill="#af162f" transform="matrix(1.03481 0 0 1.03481 -1.70012 -1.54322)"/><path d="m19.621 65.206c-.407-2.409-.583-4.804-.556-7.199 1.911 3.143 3.347 6.682 4.58 10.588-.826-.639-1.666-1.306-2.493-2.028-.528-.435-1.03-.884-1.531-1.361z" fill="#e20531" transform="matrix(1.1548 0 0 1.1548 -3.30558 -9.79893)"/><path d="m31.491 73.454c-.461-.218-.935-.449-1.396-.694-.528-5.158-.04-10.385 1.396-15.352 1.436 4.967 1.924 10.194 1.396 15.352-.461.245-.922.476-1.396.694z" fill="#e20531" transform="matrix(1.0508 0 0 1.0508 -1.59983 -3.32408)"/><path d="m41.843 66.581c-.826.708-1.666 1.388-2.493 2.028 1.233-3.906 2.67-7.445 4.58-10.589.027 2.396-.162 4.804-.555 7.2-.502.463-1.003.912-1.532 1.361z" fill="#e20531" transform="matrix(1.09824 0 0 1.09824 -4.09072 -6.21981)"/><path d="m22.697 41.688c3.143 3.457 5.664 7.458 7.425 11.773.353.871.678 1.769.976 2.667-1.667 5.213-2.29 10.752-1.802 16.21-1.545-.844-3.09-1.837-4.634-2.967-1.139-3.743-2.778-8.466-5.57-12.698.231-5.186 1.45-10.262 3.605-14.985z" fill="#cc162f" transform="matrix(1.04244 0 0 1.04244 -1.06493 -2.41938)"/><path d="m32.873 53.461c1.762-4.328 4.282-8.316 7.426-11.773 2.154 4.723 3.374 9.799 3.604 14.985-2.791 4.232-4.431 8.955-5.569 12.698-1.545 1.13-3.103 2.123-4.634 2.967.488-5.458-.122-10.997-1.802-16.21.284-.898.609-1.783.975-2.667z" fill="#cc162f" transform="matrix(1.04244 0 0 1.04244 -1.60833 -2.41938)"/><path d="m6.694 47.35c-.095-.191-.176-.395-.271-.586 5.407 2.573 9.146 5.975 11.911 10.113-.095 2.49.027 4.995.393 7.499-5-4.859-9.133-10.684-12.033-17.026z" fill="#cc162f" transform="matrix(1.04444 0 0 1.04444 -.558847 -2.46965)"/><path d="m44.269 64.362c.352-2.504.488-5.008.393-7.499 2.764-4.137 6.49-7.54 11.911-10.112-.082.19-.177.395-.272.585-2.899 6.356-7.032 12.181-12.032 17.026z" fill="#cc162f" transform="matrix(1.06949 0 0 1.06949 -3.50383 -3.86073)"/><path d="m61.76 28.237h-60.52c-.243-2.035-.392-4.057-.419-6.037v-3.238h61.358v3.224c-.027 1.994-.162 4.016-.419 6.051z" fill="#fff"/><path d="m59.147 12.549c0-.259-.894-.232-.894-.232-.718.027-.651-.435-.651-.435s.082-3.906.027-4.451c-.067-.544.407-.626.407-.626l.623-.054c.163 0 .298.013.42-.123.122-.15.149-.367-.013-.49-.298-.218-.61-.15-.949-.19-.135-.014-.284-.055-.379-.15-.095-.123-.136-.299-.136-.449 0-.164.027-.34.068-.504.027-.136.014-.299 0-.435-.013-.136-.054-.286-.095-.422-.027-.095-.122-.123-.203-.109-.108 0-.217.027-.339.027h-.095c-.108.014-.135.109-.094.204.027.082.094.15.135.232.149.313.108.667.095 1.007v6.682c0 .245 0 .49-.014.749-.013.245-.04.476-.054.721 0 .191 0 .381-.013.572-.014.177-.014.354-.095.517-.027.068-.054.123-.122.163-.041.028-.095.041-.149.055s-.109.041-.163.068c-.108.041-.23.082-.339.095h-.447c-.203 0-.325-.013-.528-.027 0 0-3.388.082-3.618.027-.231-.054-.583.109-.583.109-.122.408.352.463.352.463.786-.055 5.366-.027 5.366-.027.068 0 .136.013.204 0 .149 0 .298-.028.433-.096.136-.068.258-.217.285-.367.013-.055 0-.095 0-.15v-.34c0-.177.013-.354.027-.544.027-.191.041-.368.054-.559 0-.068.041-.122.095-.163.176-.109.352-.122.556-.136.135-.014.284 0 .42-.014.636-.027.406-.598.406-.598z" fill="#fff"/><path d="m50.041 14.576c-.406.082-.555.531-.46.885.081.368.406.449.691.395.284-.055.257-.3.257-.749s-.488-.531-.488-.531z" fill="#fff"/><path d="m51.437 14.645c.149-.028 4.512-.028 4.512-.028.488.028.434-.258.434-.258l-.407-.463c-.095-.109-.203-.204-.352-.109-.122.082-.23.163-.379.204-.068.014-.068.014-.136.028-.027 0 0 0-.325.027-.827.081-3.442-.027-3.442-.027-.203-.055-.718.285-.718.285-.081.49.813.341.813.341z" fill="#fff"/><path d="m43.646 13.896c0 .49.257.177.257.177.217-.163.339-.395.379-.667.041-.259.014-.544.014-.803v-.885c0-.394 0-.789.014-1.17 0-.449 0-.898.013-1.334 0-.463 0-.925.014-1.375 0-.435 0-.857.013-1.293 0-.353 0-.721.014-1.075v-1.007c.027-.34-.176-.34-.176-.34-.407.286-.42.953-.42.953z" fill="#fff"/><path d="m49.011 15.039c-.067-.041-.135-.054-.216-.068-.109-.027-.217-.027-.326-.027-.365-.014-.745-.014-1.111-.014-.487 0-.975.014-1.463.014-.637 0-1.138 0-1.775.041-.109 0-.203.013-.312.027-.081.014-.176.027-.257-.014-.082-.027-.136-.108-.163-.176-.027-.123-.027-.232-.027-.354v-.681c0-.64-.027-1.279 0-1.919.014-.436.014-.885.027-1.334 0-.503.014-1.007.014-1.51 0-.354-.014-.695-.014-1.048 0-.382 0-.763.014-1.13 0-.177 0-.354.013-.517 0-.259.014-.517.014-.776v-.34c0-.204 0-.368.068-.558.067-.177.149-.354.257-.518.014-.013.027-.04.027-.068.027-.149-.461-.19-.556-.163-.176.041-.216.327-.243.476-.068.341-.109.681-.109 1.035 0 .068-.013.122-.027.19-.054.232-.217.381-.461.422-.162.028-.23.028-.379.041-.203.014-.325-.041-.488.068-.122.082-.311.286-.244.463.082.218.298.299.502.327.271.027.393-.028.664-.014.122.014.23.041.311.136.149.163.163.436.149.653v.096c-.013.462-.027.939-.027 1.401-.013.926-.068 1.851-.04 2.777 0 .15-.014.313-.163.381-.19.109-.434.041-.637.041-.217 0-.42.054-.596.163-.054.041-.122.082-.149.15-.041.082-.027.163.013.245.068.15.217.231.366.259.109.027.19.027.298.027.19 0 .285-.027.461.027.149.054.312.15.366.299.041.136.041.286.054.422.027.422-.041.871.095 1.266.027.068.054.136.108.191.014 0 .041.027.054.027.082.177 1.518.081 1.518.081.244-.013.461.014.718.014h.949c.433-.014.854-.027 1.287-.054.42-.028.84-.082 1.26-.096.109 0 .204-.013.258-.122.04-.082.013-.204-.082-.259z" fill="#fff"/><path d="m49.174 14.127-3.835-.054c-.664.027-.758-.408-.758-.408l-.231.204c-.108.136-.366.435-.284.639.054.123.189.068.298.068.42-.027.772-.013 1.206 0 .488 0 .948.014 1.436.014.461 0 .921.014 1.382.014.203 0 .407 0 .61.013.515.109.583-.231.583-.231.027-.231-.407-.259-.407-.259z" fill="#fff"/><path d="m56.031 13.406c.054.109.108.218.176.327.081.122.176.204.271.313.054.068.162.163.217.04.04-.122 0-.285 0-.421v-.899c0-.34 0-.694.013-1.034 0-.408 0-.83.014-1.239 0-.435 0-.884.013-1.32 0-.422 0-.857.014-1.279 0-.368 0-.749.013-1.116v-1.021c0-.163-.013-.327-.013-.49s.013-.313 0-.476c-.014-.191-.163-.395-.258-.558-.013-.027-.04-.096-.068-.123 0 0-.352-.286-.352.177v1.021c0 .367 0 .721-.013 1.089 0 .435 0 .871-.014 1.306 0 .463 0 .926-.013 1.402 0 .449 0 .912-.014 1.361 0 .395 0 .803-.014 1.198v.912c0 .218 0 .435-.027.653v.095c.027 0 .041.041.055.082z" fill="#fff"/><path d="m44.675 12.984c0 .123.014.259.095.368.068.095.163.149.271.19.217.082.325.095.556.109.271.014.542.014.813.014h1.531c.284 0 .569-.014.854-.014.23 0 .379 0 .596.068.135.041.393.095.434-.095.149-.858-.014-2.545.027-2.899.04-.286.054-.585.054-.83-.014-.014-.014-.014-.027-.028-.027-.109-.217-.231-.217-.231-.339 0-.447.844-.447.844.189.721 0 .599 0 .599-.163.231-.691.054-.691.054-.244-.054-.082-.258-.082-.258.312-.055.393-.395.393-.395.136-.204 1.03-3.92 1.03-3.92v-.014c0-.353-.013-.993-.013-1.238 0-.381.122-.926-.149-1.225-.299-.327-1.03-.259-1.437-.245-.339 0-.664.027-1.002.055-.583.081-1.179.013-1.762-.041-.244-.028-.257-.123-.474-.204-.095-.041-.393-.041-.325.149.108.272.067.613.067.899 0 .34 0 .694-.013 1.034-.041.844-.054 1.701-.054 2.559 0 .871.013 1.742.013 2.599 0 .436 0 .871-.013 1.307 0 .258-.014.517-.028.789zm1.03-5.811.258-.695.162-.027s.258.177.488.232h1.314l.488-.232s.204.027.149.286c0 0 .082.667-.284.749 0 0-.231-.082-.353-.409 0 0-.379-.204-.406.463 0 0 .068 2.123-.027 2.409l-.027.463s.122.313.284.435c0 0 .149.409-.203.368 0 0-.677-.055-.854-.027 0 0-.406 0 0-.518 0 0 .149-.204.122-.721 0 0 0-2.409.055-2.559 0 0 .054-.313-.15-.408l-.338.014-.407.422s-.081.435-.284-.028v-.217z" fill="#fff"/><path d="m50.38 6.615c.501 1.51.976 3.729 1.003 3.729.135.286.393.517.393.517.474.177 0 .313 0 .313-.19.082-.827-.041-.827-.041-.339-.054-.19-.177-.19-.177.136-.149.027-.721.027-.721-.027-.231-.27-.599-.27-.599-.109-.054-.285.204-.285.204s-.014 0-.027.014l.041.925c.122 1.32 0 2.668 0 2.668 0 .367.149.408.149.408.691-.313 1.328-.286 1.328-.286h.609c.691 0 1.369.041 2.06.041.339 0 .637.027.962-.095.122-.055.23-.123.298-.245.081-.123.054-.259.027-.395-.04-.299-.027-.612-.04-.912 0-.313 0-.626.013-.939.014-.394.027-.789.027-1.184.014-.476.014-.966.014-1.443v-1.742c-.122-.462 0-2.899 0-2.899 0-.136-.136-.204-.244-.231-.163-.041-.23.068-.366.136-.149.068-.312.136-.461.191-.176.054-.352.054-.528.041h-.542c-.38 0-.773.013-1.152.013-.122 0-.244.014-.352-.013-.109-.014-.217-.069-.325-.096-.285-.068-.61-.027-.881.041-.176.055-.461.163-.502.381-.027.204 0 .422-.013.626 0 .34-.014.994-.027 1.456.068.191.081.314.081.314zm2.046 1.224c.027-1.184 1.125-1.088 1.125-1.088.081.149.461 0 .461 0 .406-.313.46 0 .46 0l.054.435c.055.517-.176.517-.176.517-.176-.054-.46-.408-.46-.408-.786-.463-.99.408-.99.408.149.49.786.776.786.776.664.286.99.844.99.844.514.803-.15 1.483-.15 1.483-.664.776-1.395.123-1.395.123l-.203-.054c-.434.367-.434 0-.434 0-.081-.953.122-1.008.122-1.008.176-.054.325.259.325.259-.027.258.379.517.379.517.963.49 1.057-.49 1.057-.49.055-.544-.84-.98-.84-.98-1.233-.531-1.111-1.334-1.111-1.334z" fill="#fff"/><path d="m49.526 9.037.136.259s.271.013.474.027h.136c.162 0 .189-.136.189-.286 0-.136-.311-1.007-.311-1.007l-.136-.177-.271.204c-.027.164-.217.98-.217.98z" fill="#fff"/><path d="m25.122 14.059c.027-.013.163-.04.19-.068.461-.34.366-.925.379-1.429 0-.694.095-1.388.095-2.082.014-.776.014-1.565.027-2.341.014-.912-.04-1.824-.04-2.736v-.721c0-.068-.014-.749-.041-.749-.555-.054-.677 1.021-.677 1.021l-.068 8.751c0 .422.135.354.135.354z" fill="#fff"/><path d="m29.784 14.971c-.217-.081-.448-.068-.678-.068s-.461 0-.691-.013c-.488 0-.976-.014-1.463-.014-.461 0-.922-.014-1.369-.014h-.108c-.163 0-.42 0-.556-.095-.19-.122-.244-.381-.244-.612v-.136c0-1.076.068-2.151.068-3.24 0-1.075-.041-2.164-.027-3.239v-1.987c0-.123 0-.231.013-.354 0-.068.014-.136.014-.204.027-.313.095-.64.203-.939.014-.055.041-.123.027-.177-.027-.163-.311-.218-.46-.163-.339.149-.38.598-.366.966.027.367.04.803-.244 1.021-.19.149-.474.149-.718.163s-.786.15-.624.531c.055.122.109.204.244.245.217.068.447.041.664.041s.474.068.583.272c.068.109.068.258.068.381 0 1.075.054 2.15.04 3.212v.721c0 .204-.04.477-.149.667-.095.177-.311.259-.515.286-.203.027-.406 0-.596.054-.19.055-.379.218-.366.422.014.259.325.395.583.409.257.013.542-.028.759.122.271.191.284.572.284.898 0 .218-.013.436-.013.654 0 .149 0 .313.094.435.122.136.394.15.57.15h4.878c.122 0 .284-.014.339-.123.081-.122-.122-.231-.244-.272z" fill="#fff"/><path d="m30.38 14.236c-.109-.109-.231-.204-.38-.204h-.907c-.502 0-1.017 0-1.518-.014-.108 0-.407 0-.515-.027 0 0-.84-.149-.962-.177 0 0-.285-.122-.542.381-.027.055-.014.164 0 .218.054.136.217.123.325.109.312-.027.935 0 1.26 0h1.762c.149 0 .284-.014.433.014.109.013.217.04.326.068.149.027.325.109.487.081.082-.013.19-.068.258-.136.095-.081.068-.204-.027-.313z" fill="#fff"/><path d="m30.976 14.604h-.068c-.352.041-.555.381-.528.735 0 0 .054.558.637.558.081 0 .189-.068.257-.123.217-.163.258-.449.149-.68-.068-.177-.217-.49-.447-.49z" fill="#fff"/><path d="m32.128 14.658c.176-.027.366-.013.542-.013.393 0 .799-.014 1.192-.014.637 0 1.342-.055 1.965 0 .109.014.461.054.461-.136 0-.204-.461-.558-.461-.558-.081-.068-.23-.041-.339-.027-.054 0-.108.013-.162.027-.068.013-.136.054-.204.081-.04.014-.094.028-.135.041-.108.027-.23.041-.339.055-.393.041-.826.041-1.219.027-.271 0-.542-.014-.813-.027-.258-.014-.542-.055-.8-.055-.095 0-.189.068-.257.123-.041.041-.136.095-.163.163 0 .014-.013.027-.013.041 0 .068.013.15.054.204.108.136.325.136.488.123.054-.028.135-.041.203-.055z" fill="#fff"/><path d="m38.09 12.222c-.705.027-.65-.694-.65-.694.04-.545.027-1.103.04-1.647.014-.517.027-1.021.027-1.538 0-.204-.067-.408-.054-.612 0-.218-.041-.477.014-.681.094-.395.596-.272.907-.259h.041c.217 0 .474-.054.529-.313.054-.258-.095-.476-.339-.544-.176-.054-.447-.082-.637-.082-.176 0-.379-.04-.434-.231-.027-.082-.013-.177-.013-.259 0-.095-.014-.19-.014-.285 0-.191-.013-.395-.013-.586 0-.163.04-.313-.041-.462-.068-.136-.163-.177-.284-.218-.055-.014-.15-.027-.204-.027-.095 0-.189.027-.244.109-.04.054-.067.122-.067.19s.027.123.067.177c.041.054.082.109.095.177.082.272.054.558.054.844 0 .299-.013.585-.013.884-.014.545-.014 1.076-.027 1.62-.014 3.498-.095 6.683-.095 6.683 0 .149 0 .34-.108.449-.109.109-.217.041-.353.041h-.664c-.46 0-.975 0-1.436.013-.447 0-.894 0-1.328.014h-.623c-.407 0-.407.231-.407.231 0 .136.136.204.258.218.189.027.42 0 .623.014.217 0 .42 0 .637.013.42 0 .881.014 1.301.014.487 0 1.002 0 1.504-.014.216 0 .42 0 .637-.013.609.081.582-.735.582-.735.082-1.375.203-1.511.203-1.511.15-.123.759-.082.759-.082.149 0 .298.014.447-.041.095-.027.136-.095.177-.19.04-.082.054-.163.027-.245-.095-.436-.542-.422-.881-.422z" fill="#fff"/><path d="m35.868 9.16v3.593c0 .204-.027.449.054.639.095.191.203.409.366.558.095.096.19.164.19-.027.013-.313.027-.612.04-.925 0-.313.014-.626.014-.953 0-.422.013-.844.013-1.266 0-.476.014-.952.014-1.429 0-.49-.027-.966-.014-1.456 0-.449-.027-.912-.013-1.348 0-.353.013-.68.013-1.034 0-.204.027-.395.014-.599 0-.204-.054-.381-.122-.571-.054-.164-.081-.436-.258-.504-.122-.041-.311.068-.352.191 0 .013-.013.04-.013.054v2.205c0 .463.013.925.013 1.388-.013.504.041.994.041 1.484z" fill="#fff"/><path d="m29.025 8.547c.732-.694 0-1.347-.122-1.511-.122-.176-.705-.027-.705-.027l-.081.204c.027.64.027 1.511.027 1.511.569.436.881-.177.881-.177z" fill="#fff"/><path d="m27.06 13.569c.217.014.583.028.786.028.447.013.894-.041 1.328-.028.176 0 .366 0 .542.014.108 0 .217 0 .325.014.122 0 .203.027.298.095.163.109.258-.014.258-.177 0 0 .23-7.581.122-9.16 0 0-.027-.667-.529-.694-.379.027-.745.055-1.125.068-.216.014-.433.014-.664.014-.149 0-.311 0-.46-.027-.325-.055-.786-.164-1.098-.259-.176-.054-.704.027-.704.245l-.095 9.364c.027-.027.298.408 1.016.503zm.081-6.927c.055-.15.556-.055.556-.055h1.219c.447.15.881.436.976.912.027.164.027.368.014.531-.014.136-.055.259-.122.381-.109.191-.258.34-.448.463-.081.054-.162.109-.257.136l-.054.463.813 1.293c.149.122.122.231.122.231-.122.327-.583 0-.583 0l-1.016-1.579c-.082-.122-.258.082-.258.082l-.054.898.258.436c.176.231-.122.408-.122.408l-.935-.082c-.176-.081 0-.381 0-.381.23-.149.257-.531.257-.531l-.027-1.674.027-1.225c0-.149-.23-.408-.23-.408-.203-.027-.136-.299-.136-.299z" fill="#fff"/><path d="m31.084 13.801c.028.027.068.041.109.027.027 0 .054-.027.081-.041.041-.027.081-.027.136-.041.325-.068.691-.122 1.043-.136.339 0 .664.055 1.003.082.447.027.948.054 1.382-.027.135-.028.312-.055.433-.109.122-.055.217-.232.217-.368 0-.163 0-.326.014-.49 0-.422.013-.844.013-1.266.014-.571.014-1.143.027-1.714.014-.613-.054-1.239-.04-1.851v-1.606c0-.422 0-.844-.014-1.28 0-.285.041-.558.054-.844.014-.122.014-.231.014-.353 0-.055.014-.136-.014-.191-.108-.231-.311-.095-.487 0-.204.109-.488.095-.718.109-.299.014-.583.027-.881.027-.38 0-.759-.013-1.125-.013 0 0-1.07-.028-1.125.435 0 0-.081 4.396-.054 4.546l-.054 3.702-.122 1.279c-.014.041.081.109.108.123zm1.45-2.872c.298-.15.393-.667.393-.667v-2.885l-.271-.586c-.095-.231.502-.258.502-.258l.298.054c.217-.027.42.055.42.055.203.326-.149.49-.149.49l-.122.394c-.027.327 0 3.09 0 3.09.054.15.298.408.298.408 0 .259-.325.204-.325.204l-.868.028c-.257-.028-.176-.327-.176-.327z" fill="#fff"/><path d="m12.223 14.604h-.068c-.353.041-.556.381-.529.735 0 0 .054.558.637.558.081 0 .19-.068.258-.123.216-.163.257-.449.149-.68-.082-.177-.217-.49-.447-.49z" fill="#fff"/><path d="m6.409 14.059c.027-.013.204-.041.244-.068.461-.34.366-.925.38-1.429 0-.694.095-1.388.108-2.082.014-.776.014-1.565.027-2.341.014-.912-.04-1.824-.04-2.736v-.721c-.041-.055-.041-.735-.082-.735-.542-.054-.718 1.021-.718 1.021l-.068 8.751c0 .408.149.34.149.34z" fill="#fff"/><path d="m11.152 14.971c-.108-.068-.23-.068-.352-.068-1.206-.013-2.792-.027-3.998-.041-.162 0-.474 0-.596-.095-.19-.122-.244-.381-.244-.612v-.136c0-1.076.068-2.151.068-3.24 0-1.075-.041-2.164-.027-3.239v-1.987c0-.123 0-.231.013-.354 0-.068.014-.136.014-.204.014-.313.081-.64.19-.939.013-.055.04-.123.027-.177-.014-.163-.312-.218-.461-.163-.339.149-.379.598-.366.966.027.367.054.803-.244 1.034-.189.15-.46.15-.718.164-.244.013-.84.122-.677.503.054.123.176.232.298.272.203.068.433.041.664.041.23 0 .474.068.582.272.068.109.068.259.068.381 0 1.076.054 2.151.041 3.213-.014.258-.014.503-.014.734 0 .205-.04.477-.149.667-.095.177-.311.259-.515.273-.203.027-.406 0-.596.054-.203.068-.379.231-.366.436.014.258.325.394.583.408.257.013.542-.027.759.122.271.191.284.586.284.912 0 .218-.013.436-.013.653 0 .15 0 .313.095.436.121.136.392.15.569.15h4.851c.122 0 .284-.014.338-.123.068-.109-.013-.258-.108-.313z" fill="#fff"/><path d="m11.653 14.236c-.108-.109-.23-.204-.379-.204h-.908c-.515 0-1.016 0-1.531-.014-.122 0-.325 0-.447-.027 0 0-.854-.149-.962-.177 0 0-.285-.122-.556.381-.027.055-.014.164 0 .218.054.136.217.123.325.109.325-.027.949 0 1.26 0h1.708c.149 0 .284-.014.433.014.109.013.217.04.326.068.162.027.325.109.487.081.082-.013.19-.068.258-.136.108-.081.068-.204-.014-.313z" fill="#fff"/><path d="m13.374 14.658c.176-.027.366-.013.542-.013.393 0 .8-.014 1.193-.014.637 0 1.382-.055 2.005 0 .109.014.461.054.461-.136 0-.204-.461-.558-.461-.558-.081-.068-.23-.041-.339-.027-.054 0-.108.013-.162.027-.068.013-.136.054-.203.081-.041.014-.095.028-.136.041-.108.027-.271.041-.379.055-.393.041-.827.041-1.22.027-.271 0-.542-.014-.813-.027-.257-.014-.542-.055-.799-.055-.095 0-.19.068-.258.123-.04.041-.135.095-.162.163 0 .014-.014.027-.014.041 0 .068.014.15.054.204.109.136.325.136.488.123.054-.028.122-.041.203-.055z" fill="#fff"/><path d="m18.862 11.936c-.068-.122-.095-.272-.081-.408.04-.531-.014-1.062-.014-1.593.014-.53.041-1.061.054-1.592v-.612c0-.218-.04-.477.014-.681.095-.395.501-.286.813-.286h.041c.217 0 .515-.041.555-.299.054-.259-.135-.49-.366-.558-.176-.055-.365-.055-.542-.055-.176 0-.379-.04-.433-.231-.027-.082-.014-.177-.014-.259 0-.095-.013-.19-.013-.285 0-.191-.014-.395-.014-.586 0-.163.041-.313-.041-.462-.067-.136-.189-.177-.311-.218-.054-.014-.149-.027-.203-.027-.095 0-.19.027-.244.109-.041.054-.068.122-.068.19s.027.123.068.177c.04.054.081.109.095.177.081.272.054.558.054.844 0 .299-.014.585-.014.884-.013.545-.013 1.076-.027 1.62-.013 3.498-.149 6.683-.149 6.683 0 .163 0 .449-.19.503-.054.014-.122.014-.189 0-.719-.054-1.491 0-2.209 0-.447 0-.894 0-1.328.014h-.623c-.407 0-.407.231-.407.231 0 .136.136.204.258.218.189.027.42 0 .623.014.217 0 .42 0 .637.013.42 0 .881.014 1.301.014.487 0 1.043 0 1.544-.014h.719c.392-.013.528-.395.555-.735.027-.463.027-1.007.176-1.456 0-.014.014-.041.027-.054.055-.123.325-.109.447-.109h.299c.149 0 .298.013.447-.041.095-.027.135-.095.176-.191.041-.081.054-.163.027-.245-.176-.707-1.152-.122-1.45-.694z" fill="#fff"/><path d="m17.561 13.964c.095.095.19.163.19-.027.014-.313.027-.613.041-.926 0-.313.013-.626.013-.952 0-.422.014-.844.014-1.266 0-.476.013-.953.013-1.429 0-.49.014-.98.027-1.47v-1.348c0-.353.014-.68.014-1.034 0-.204.027-.395.013-.599 0-.204-.054-.381-.121-.571-.055-.164-.082-.436-.258-.504-.122-.041-.312.068-.352.191 0 .013-.014.04-.014.054v2.205c0 .463.014.925.014 1.388 0 .49-.014.994-.014 1.484v3.593c0 .204-.027.449.054.639.095.205.217.422.366.572z" fill="#fff"/><path d="m8.388 13.569c.217.014.501.028.718.028.434.013.881-.028 1.328-.028.176 0 .366 0 .542.014.108 0 .217 0 .325.014.122 0 .203.027.298.095.163.109.258-.014.258-.177 0 0 .23-7.581.122-9.16 0 0-.027-.667-.529-.694-.366.027-.745.041-1.111.055-.23.013-.447.013-.664.013-.149 0-.312 0-.461-.027-.325-.068-.718-.177-1.03-.259-.176-.054-.704.028-.704.245l-.095 9.351s.271.435 1.003.53zm-.271-6.968 1.07.027s.353.3-.122.626c0 0 .054.477.664 2.3 0 0 .176.681.38.177l.596-2.109-.176-.626s-.177-.3.081-.327c0 0 .61-.054.691.177l-.244.558s-.637 2.899-.989 3.484c0 0-.054.599-.556.123 0 0-1.138-3.675-1.192-3.784l-.379-.272c.013 0-.231-.327.176-.354z" fill="#fff"/><path d="m12.317 13.801c.027.027.068.041.109.027.027 0 .054-.027.081-.041.041-.027.081-.027.136-.041.325-.081.691-.136 1.029-.136.339 0 .664.055 1.003.082.447.027.989.054 1.423-.027.135-.028.311-.055.433-.109.122-.055.217-.232.217-.368 0-.163 0-.326.014-.49 0-.422.013-.844.013-1.266.014-.571.014-1.143.027-1.714.014-.613.014-1.239.014-1.851v-1.606c0-.422 0-.844-.014-1.28 0-.285.041-.558.055-.844.013-.122.013-.231.013-.353 0-.055.014-.136-.013-.191-.109-.231-.38-.095-.542 0-.204.109-.529.095-.759.109-.298.014-.583.027-.881.027-.379 0-.759-.013-1.125-.013 0 0-1.07-.028-1.124.435 0 0-.082 4.396-.055 4.546l-.04 3.702-.122 1.279c0 .041.095.109.108.123zm.84-7.146.8-.095c.122.123 1.125-.027 1.125-.027.149-.055.23.15.23.15l.149.503c-.149.408-.298.055-.298.055-.054-.177-.651-.3-.651-.3-.501-.054-.447.681-.447.681-.149.381.095.857.095.857.502.204.678-.15.678-.15.027-.122.298-.081.298-.081.203.299 0 .762 0 .762-.095.15-.651-.204-.651-.204-.501-.027-.474.299-.474.299v1.307c0 .231.23.449.23.449 1.057.15 1.152-.327 1.152-.327.298-.558.38-.177.38-.177.203 1.062-.624.912-.624.912-2.141-.027-1.87-.204-1.87-.204-.203-.027.095-.408.095-.408l.082-.232.027-3.13c0-.122-.095-.177-.095-.177-.353-.163-.231-.463-.231-.463z" fill="#fff"/><path d="m45.99 7.431.406-.422.339-.013c.203.081.149.408.149.408-.054.15-.054 2.559-.054 2.559.027.517-.122.721-.122.721-.407.517 0 .517 0 .517.176-.027.854.027.854.027.352.028.203-.367.203-.367-.176-.109-.285-.436-.285-.436l.027-.462c.082-.286.027-2.409.027-2.409.028-.667.407-.463.407-.463.122.313.352.408.352.408.38-.081.285-.748.285-.748.054-.259-.149-.286-.149-.286l-.488.231h-1.328c-.23-.054-.488-.231-.488-.231l-.162.027-.258.694v.232c.203.449.285.013.285.013z"/><path d="m53.524 9.16s.894.435.84.98c0 0-.095.98-1.057.49 0 0-.407-.259-.38-.518 0 0-.149-.313-.325-.258 0 0-.203.054-.122 1.007 0 0 0 .367.434 0l.203.054s.732.654 1.396-.122c0 0 .664-.681.149-1.484 0 0-.325-.558-.989-.843 0 0-.637-.286-.786-.776 0 0 .203-.858.989-.409 0 0 .285.341.461.409 0 0 .23 0 .176-.517l-.054-.436s-.055-.313-.461 0c0 0-.38.15-.461 0 0 0-1.097-.082-1.124 1.089.013.013-.109.816 1.111 1.334z"/><path d="m59.581 12.29c-.258-.49-1.166-.408-1.166-.408-.609.054-.488-.341-.488-.341.041-.326.014-.68.028-1.007.013-.667.027-1.32.04-1.987.014-.34-.081-1.034.203-1.293.082-.081.136-.054.258-.081.569-.096.976-.205 1.098-.817.081-.408-.61-.721-.61-.721-.217-.096-.569-.041-.8-.082-.135-.041-.162-.218-.162-.34-.014-.164-.014-.313 0-.477.013-.217.027-.435.027-.653 0-.095 0-.19-.041-.286-.041-.081-.095-.149-.162-.204-.136-.109-.312-.177-.502-.177h-.23c-.231 0-.461.014-.691.014h-.027c-.027-.014-.068-.068-.095-.082-.041-.027-.082-.054-.136-.082-.095-.04-.162-.068-.271-.095-.135-.054-.298-.081-.447-.081-.068 0-.108.04-.162.068-.502.285-1.03.353-1.599.367-.61.014-1.22-.054-1.816-.109-.203-.013-.393-.041-.596-.041-.204.014-.393.041-.583.082-.095.014-.19.041-.257.122-.068.069-.122.177-.231.164-.366-.055-.691-.286-1.084-.327s-.786-.013-1.179 0c-.46.027-.921.055-1.395.095-1.504.055-1.626-.462-1.626-.462-.258-.436-.583.204-.583.204-.041.068-.108.136-.176.177-.217.109-.475.109-.705.081-.122-.013-.23-.068-.352-.054s-.217.068-.325.136c-.082.055-.163.123-.217.204-.041.082-.041.15-.041.232l-.013 1.361c-.055.367-.475.231-.475.231-.921-.204-1.124.449-1.124.449-.176.286-.055.626-.055.626.068.259.231.409.475.477.217.054.501.149.718.136.434-.014.366-.028.42.394.014.055 0 .123 0 .177.014.654 0 1.32-.014 1.974 0 .34.014.694.014 1.034 0 .177-.014.34-.027.517-.014.15.013.422-.136.518-.108.068-.284.027-.406.027-.163 0-.339.013-.502.054-.162.041-.325.123-.42.272-.122.177-.203.395-.162.599.04.204.162.381.311.504.163.149.407.136.597.163.203.027.366.027.569.055.257.027.203.462.203.462 0 .545-.041 1.103.081 1.634.068.285.597.272.813.272.461 0 .908-.027 1.369-.027.867-.014 1.612-.028 2.48-.041.623-.014 1.246 0 1.87-.014h.094c.136.027.299.204.393.286.515.435 1.166-.15 1.166-.15.352-.068.677-.109 1.043-.109.922.028 1.843.014 2.764 0 .461-.013.827-.013 1.288-.027.365 0 .704-.054 1.07-.082.176-.013.339-.027.515-.04.854-.055.393-1.402.556-1.933.04-.15.081-.313.243-.34.502 0 1.315-.014 1.423-.586.041-.163.041-.462-.04-.612zm-3.564.259v-.912c0-.395 0-.803.013-1.198 0-.449 0-.912.014-1.361 0-.463 0-.926.013-1.402 0-.435 0-.871.014-1.306 0-.368 0-.722.014-1.089v-1.021c0-.463.352-.177.352-.177.027.027.041.095.068.123.095.163.244.367.257.558.014.163-.013.313 0 .476 0 .163.014.327.014.49v1.021c0 .367 0 .748-.014 1.116 0 .422 0 .857-.013 1.279 0 .436 0 .885-.014 1.32 0 .409 0 .83-.013 1.239 0 .34 0 .694-.014 1.034 0 .3-.014.599 0 .898 0 .123.041.3 0 .422-.054.123-.163.027-.217-.04-.095-.109-.19-.191-.271-.314-.068-.108-.122-.204-.176-.326-.014-.041-.027-.068-.041-.109 0-.027-.013-.068 0-.095.014-.191.014-.409.014-.626zm-5.678-8.289c.027-.218.312-.34.502-.381.271-.082.609-.109.88-.041.109.027.217.068.326.095.122.014.244.014.352.014.379 0 .772-.014 1.152-.014.176 0 .352-.013.542 0 .176 0 .352 0 .528-.04.163-.055.312-.109.461-.191.135-.068.203-.177.366-.136.108 0 .244.082.244.218 0 0-.122 2.449 0 2.899v1.742c0 .476-.014.966-.014 1.442 0 .395-.014.79-.027 1.185-.014.313-.014.626-.014.939 0 .299 0 .612.041.911.014.137.041.273-.027.395-.068.109-.176.191-.298.245-.325.136-.623.095-.962.095-.691 0-1.369-.04-2.06-.04h-.61s-.636-.028-1.327.285c0 0-.15-.027-.15-.408 0 0 .122-1.347 0-2.667l-.04-.926c.013 0 .027-.014.027-.014s.176-.258.284-.204c0 0 .244.368.271.599 0 0 .109.572-.027.721 0 0-.135.109.19.177 0 0 .637.123.827.041 0 0 .474-.149 0-.313 0 0-.244-.231-.393-.517-.014 0-.502-2.219-1.003-3.729 0 0-.014-.123-.081-.259.013-.463.013-1.116.027-1.456 0-.231-.014-.463.013-.667zm-.176 3.784s.312.857.312 1.007c0 .149-.027.286-.19.286h-.135c-.204-.014-.475-.028-.475-.028l-.135-.258s.19-.83.217-.967l.271-.204zm-5.461.245c0-.858.014-1.715.068-2.573.014-.34.014-.694.014-1.034 0-.286.027-.626-.068-.898-.068-.191.23-.177.325-.15.217.082.231.177.474.204.597.055 1.179.109 1.762.041.339-.027.664-.041 1.003-.055.406-.013 1.138-.081 1.436.245.285.3.163.858.149 1.225 0 .259.014.899.014 1.239v.013s-.895 3.716-1.03 3.92c0 0-.082.341-.393.395 0 0-.163.204.081.259 0 0 .529.176.691-.055 0 0 .19.109 0-.599 0 0 .109-.844.447-.844 0 0 .19.109.217.232 0 .013.014.027.027.027 0 .245-.027.531-.054.83-.041.354.122 2.042-.027 2.899-.041.204-.298.136-.434.095-.216-.054-.365-.068-.596-.068-.284 0-.569.014-.854.014h-1.531c-.271 0-.542 0-.813-.014-.23-.013-.352-.027-.555-.109-.109-.04-.204-.108-.271-.19-.082-.109-.095-.231-.095-.367 0-.259.013-.531.013-.79 0-.435.014-.871.014-1.306-.014-.858-.027-1.715-.014-2.586zm-.514-4.192s.203 0 .176.34v1.007c0 .354 0 .721-.014 1.075 0 .436 0 .858-.013 1.293 0 .463 0 .926-.014 1.375 0 .449 0 .898-.014 1.334 0 .394 0 .789-.013 1.17v.885c0 .258.027.544-.014.803-.04.258-.162.503-.379.667 0 0-.258.313-.258-.177l.109-8.847c.013.027.027-.64.434-.925zm4.905 11.214c-.054.109-.163.109-.258.123-.42.014-.84.068-1.26.095-.434.027-.854.041-1.287.055h-.949c-.244 0-.474-.028-.718-.014 0 0-1.436.082-1.518-.082 0 0-.04-.027-.054-.027-.054-.041-.081-.122-.108-.19-.136-.409-.068-.858-.095-1.266-.014-.136-.014-.3-.054-.422-.054-.163-.203-.259-.366-.299-.176-.055-.285-.028-.461-.028-.108 0-.189 0-.298-.027-.162-.027-.298-.109-.366-.258-.04-.082-.054-.164-.013-.245.027-.069.081-.109.149-.15.176-.109.393-.15.596-.163.203 0 .447.054.637-.041.135-.082.162-.232.162-.381-.027-.926.027-1.851.041-2.777 0-.463.014-.939.027-1.402v-.095c0-.218 0-.476-.149-.653-.081-.096-.19-.123-.311-.136-.271-.014-.393.04-.664.013-.204-.041-.434-.136-.515-.354-.068-.177.108-.381.244-.462.176-.109.298-.055.487-.068.163 0 .217 0 .38-.028.23-.027.393-.19.46-.422.014-.068.027-.122.027-.19-.013-.34.041-.694.109-1.035.027-.149.068-.435.244-.476.095-.027.583.014.555.163 0 .028-.013.041-.027.069-.108.163-.189.326-.257.517-.068.19-.068.354-.068.558v.34c0 .259-.013.517-.013.776 0 .177 0 .354-.014.517-.014.381-.014.762-.014 1.13 0 .353.028.694.014 1.048 0 .503-.014 1.007-.014 1.51 0 .449 0 .885-.027 1.334-.027.64 0 1.279 0 1.919v.681c0 .122 0 .231.041.34.027.082.081.15.163.177.081.027.176.013.257.013.108-.013.203-.013.312-.027.637-.027 1.138-.041 1.775-.041.488-.013.975-.013 1.463-.013.366 0 .745 0 1.111.013.109 0 .217 0 .326.028.067.013.149.04.216.068.095.068.122.19.082.285zm-.095-.694c-.203 0-.407 0-.61-.013-.461 0-.921-.014-1.382-.014-.488 0-.949-.014-1.436-.014-.42 0-.773-.027-1.206 0-.109 0-.244.055-.298-.068-.095-.204.176-.503.284-.639l.23-.204s.082.435.759.408l3.835.054s.434.028.407.259c0 0-.055.34-.583.231zm1.274 1.239c-.285.054-.61-.027-.691-.395-.082-.354.054-.803.46-.885 0 0 .488.082.488.531s.041.694-.257.749zm.352-1.552s.515-.34.718-.285c0 0 2.629.108 3.442.027.325-.027.298-.027.325-.027l.136-.028c.135-.027.257-.122.379-.204.135-.095.244.014.352.109l.407.463s.054.286-.434.258c0 0-4.377 0-4.512.028 0 0-.895.149-.813-.341zm8.116-1.157c-.135 0-.284 0-.42.014-.203.014-.379.027-.555.136-.054.041-.095.095-.095.163-.014.191-.041.368-.054.559-.027.176-.027.353-.027.544v.49c-.027.15-.149.299-.285.367-.135.068-.284.082-.433.096h-.204s-4.593-.028-5.366.027c0 0-.46-.055-.352-.463 0 0 .352-.177.583-.109.23.055 3.618-.027 3.618-.027.203.014.325.027.528.027.163 0 .298 0 .447-.013.122-.014.231-.055.339-.096.054-.027.108-.04.163-.068.054-.013.095-.027.149-.054.067-.041.095-.095.122-.164.067-.163.081-.34.095-.517.013-.19 0-.381.013-.571 0-.245.041-.477.054-.722.014-.245.014-.49.014-.748v-6.683c0-.34.054-.694-.095-1.007-.041-.082-.108-.136-.136-.231-.027-.082 0-.191.095-.204h.095c.122 0 .231-.028.339-.028.081 0 .176.028.203.109.041.136.081.272.095.422.014.136.041.3 0 .436-.041.163-.068.34-.068.503 0 .15.041.327.136.449.095.109.244.136.379.15.339.041.651-.027.949.191.176.122.149.34.013.49-.108.136-.257.122-.42.122l-.623.068s-.461.082-.407.626c.055.545-.027 4.451-.027 4.451s-.067.462.651.435c0 0 .894-.027.894.232 0 0 .23.571-.407.598z"/><path d="m27.277 6.941s.23.259.23.408l-.027 1.225.027 1.688s-.027.381-.257.531c0 0-.177.286 0 .381l.935.082s.298-.177.121-.409l-.257-.435.054-.898s.176-.205.258-.082l1.016 1.579s.461.326.583 0c0 0 .027-.123-.122-.232l-.813-1.293.054-.462c.095-.041.176-.082.257-.137.176-.122.339-.272.447-.462.068-.109.109-.245.122-.368.014-.163.028-.367-.013-.531-.095-.476-.542-.775-.976-.911h-1.219s-.502-.082-.556.054c0-.027-.068.245.136.272zm.935.055s.582-.15.704.027.84.816.122 1.511c0 0-.325.612-.881.177 0 0 0-.872-.027-1.511z"/><path d="m32.724 11.256.867-.028s.325.055.325-.204c0 0-.244-.258-.298-.408 0 0-.027-2.763 0-3.09l.122-.381s.352-.177.149-.49c0 0-.203-.081-.42-.054l-.298-.068s-.596.027-.501.258l.271.586v2.885s-.095.531-.393.667c-.014 0-.095.299.176.327z"/><path d="m38.442 11.882c-.691.027-.623-.49-.623-.49.027-.381-.014-3.702-.014-3.702 0-.136.041-.368.149-.449.082-.068.204-.028.298-.028.149 0 .312.028.448 0 .271-.04.474-.177.582-.449.054-.149.081-.313.068-.462-.027-.286-.027-.531-.352-.64-.163-.055-.312-.041-.475-.027-.677.027-.704-.518-.704-.518.054-.381.068-.762 0-1.143-.041-.231-.095-.503-.38-.531-.244-.027-.555-.054-.799.014-.081.027-.122.054-.217.027-.081-.027-.122-.068-.176-.122-.068-.096-.149-.164-.203-.232-.055-.068-.055-.136-.136-.177-.068-.027-.135-.04-.203-.054-.136-.027-.244.109-.352.177-.122.082-.177.136-.298.19-.258.096-.583.137-.841.164-.162.013-.338.013-.501-.014-.244-.027-.461-.068-.705-.082-.284-.013-.596 0-.88.014-.177.014-.38 0-.556.027-.095.014-.136.082-.217.136-.162.109-.379.082-.555 0-.082-.04-.136-.108-.217-.136-.122-.041-.258-.054-.393-.054-.501.027-1.016.054-1.518.027-.366-.014-.826-.041-1.192-.109-.108-.027-.23-.041-.339-.081-.149-.041-.352-.123-.501-.177-.122-.041-.705-.123-.813-.028-.041.028-.054.068-.082.109-.04.068-.081.136-.135.204-.163.164-.529.096-.745.096-.136 0-.339-.014-.475-.014-.487-.027-.582.286-.582.286l-.027 1.198c0 .217.081.49-.136.612-.19.095-.352.123-.569.123-.23.013-.461.013-.664.136-.162.095-.298.272-.325.462-.027.123 0 .232.027.354.054.204.136.381.339.463s.433.082.637.054c.149-.013.325 0 .46.069.176.081.204.231.19.408-.014.299.054.612.054.912 0 .667.027 1.333.041 2 0 .191 0 .382.013.572 0 .177-.054.368-.081.544 0 .082-.013.164-.054.218-.041.068-.108.095-.176.109-.082.014-.149 0-.217 0-1.369-.027-1.192.898-1.192.898.027.871 1.016.762 1.016.762.162-.013.366.028.501.137.054.04.081.095.095.163 0 .027 0 .054.014.082.054.122-.055 1.456-.055 1.456-.027.258.217.463.448.49.121.013.243-.027.365-.027.204-.014.569.013.773.027.555.013 1.423.027 1.978.041.569.013 1.301.027 1.87.041.136 0 .271 0 .407.013.122 0 .243-.013.352.014.095.027.176.095.257.149.244.177.569.313.881.313.163 0 .325-.068.447-.177.068-.067.122-.176.176-.258.041-.041.082-.068.122-.082.136-.027.312.028.447.028.095 0 .204.013.285.013.556.014 1.111.014 1.68.014.596 0 1.233-.014 1.816-.014.285 0 .569-.013.867-.013.813.176.813-.558.813-.558l.054-1.457c.095-.435.664-.258.963-.313.46-.082.636-.463.623-.912 0-.884-.881-.816-.881-.816zm-2.629-6.751v-1.048c0-.014 0-.041.014-.054.041-.123.23-.232.352-.191.176.068.203.34.258.504.067.19.122.354.122.571 0 .204-.014.395-.014.599 0 .354-.014.681-.014 1.034 0 .45.028.912.014 1.348 0 .49.027.966.014 1.456 0 .477-.014.953-.014 1.429 0 .422-.014.844-.014 1.266 0 .313-.013.626-.013.953 0 .313-.027.612-.041.925-.013.177-.095.123-.189.027-.163-.149-.271-.367-.366-.558-.095-.19-.068-.435-.054-.639v-3.593c0-.49-.055-.994-.055-1.484 0-.463-.013-.925-.013-1.388.013-.381.013-.762.013-1.157zm-4.729 7.268.054-3.702c-.027-.15.055-4.546.055-4.546.054-.463 1.124-.435 1.124-.435.38.013.759.013 1.125.013.298 0 .583 0 .881-.027.217-.014.515 0 .718-.109.176-.095.366-.231.488 0 .027.055.013.136.013.191 0 .122-.013.231-.013.353-.014.286-.054.559-.054.844 0 .422.013.844.013 1.28v1.606c0 .612.054 1.238.041 1.851 0 .571-.014 1.143-.027 1.714 0 .422-.014.844-.014 1.266 0 .164 0 .327-.013.49 0 .136-.095.313-.217.368-.136.054-.298.081-.434.109-.433.081-.935.054-1.382.027-.339-.027-.664-.082-1.003-.082s-.704.068-1.043.136c-.041.014-.095.028-.136.041-.027.014-.054.041-.081.041-.041 0-.081-.014-.108-.027-.027-.014-.109-.082-.109-.109 0-.014.122-1.293.122-1.293zm-4.918-8.711c0-.204.528-.285.704-.245.312.082.786.205 1.098.259.149.027.311.027.46.027.217 0 .434 0 .664-.013.38-.014.746-.041 1.125-.068.488.027.529.694.529.694.121 1.578-.122 9.159-.122 9.159-.014.164-.109.273-.258.177-.108-.068-.176-.095-.298-.095-.108 0-.217-.014-.325-.014-.176 0-.366-.013-.542-.013-.447 0-.895.041-1.328.027-.217 0-.583-.014-.786-.027-.732-.082-.989-.531-.989-.531zm-1.112 1.28s.122-1.075.678-1.021c.027 0 .041.68.041.749.013.244.013.489 0 .721 0 .912.054 1.824.04 2.735-.013.776-.013 1.566-.027 2.341 0 .695-.095 1.389-.095 2.083 0 .503.082 1.089-.379 1.429-.027.027-.163.041-.19.068 0 0-.149.054-.135-.354zm4.973 10.316c-.067.109-.216.123-.338.123h-4.878c-.177 0-.448-.014-.57-.15-.094-.109-.094-.286-.094-.435 0-.218.013-.436.013-.654 0-.326-.013-.708-.284-.898-.217-.15-.502-.109-.759-.123-.258-.013-.569-.149-.583-.408-.014-.204.176-.367.366-.422.19-.054.406-.041.596-.054.203-.027.42-.095.515-.286s.136-.449.149-.667v-.721c.014-1.076-.041-2.151-.041-3.212 0-.136 0-.272-.067-.381-.109-.205-.353-.273-.583-.273s-.461.028-.664-.04c-.122-.041-.19-.123-.244-.245-.163-.381.38-.531.623-.531.244-.014.529-.014.719-.164.284-.231.271-.653.244-1.02-.028-.368.027-.817.365-.967.149-.068.447-.013.461.164.014.054-.014.122-.027.177-.108.299-.163.612-.203.939 0 .068-.014.136-.014.204-.013.122-.013.231-.013.354v1.987c0 1.075.04 2.164.027 3.239 0 1.075-.068 2.151-.068 3.239v.136c.014.245.054.49.244.613.135.082.393.095.555.095h.109c.461 0 .921.014 1.368.014.488 0 .976.013 1.464.013.23 0 .461 0 .691.014.23 0 .461-.014.677.068.122 0 .326.109.244.272zm.109-.585c-.163.027-.325-.054-.488-.082-.108-.027-.217-.054-.325-.068-.136-.027-.285 0-.434-.013h-1.761c-.326 0-.935-.014-1.261 0-.122.013-.271.027-.325-.109-.027-.055-.027-.164 0-.218.258-.49.542-.381.542-.381.122.027.962.177.962.177.109.027.407.027.515.027.502.014 1.016.014 1.518.014h.908c.162 0 .284.095.379.204.095.095.122.218.014.326-.055.041-.149.109-.244.123zm1.152 1.075c-.068.055-.177.123-.258.123-.583 0-.637-.558-.637-.558-.04-.354.163-.708.529-.735h.067c.231 0 .38.313.461.49.095.245.054.517-.162.68zm.135-1.211c-.041-.055-.068-.123-.054-.204 0-.014 0-.027.013-.041.027-.068.122-.123.163-.163.068-.055.163-.123.257-.123.258 0 .542.041.8.054.271.014.542.028.813.028.393.013.826.013 1.219-.028.109-.013.231-.027.339-.054.041-.013.095-.027.136-.041.067-.027.135-.068.203-.081.054-.014.108-.014.163-.028.094-.013.243-.027.338.028 0 0 .461.353.461.558 0 .204-.352.149-.461.136-.637-.068-1.328-.014-1.964 0-.393 0-.8.013-1.193.013-.176 0-.366-.013-.542.014-.068.014-.149.027-.217.027-.149.041-.366.041-.474-.095zm7.534-1.688c-.041.082-.081.164-.176.191-.149.041-.298.041-.447.041 0 0-.624-.028-.759.081 0 0-.122.15-.203 1.511 0 0 .027.817-.583.735-.217 0-.42 0-.637.014-.488 0-1.003.013-1.504.013-.407 0-.881 0-1.301-.013-.217 0-.42 0-.637-.014-.203 0-.42.014-.623-.014-.108-.013-.257-.095-.257-.217 0 0 0-.232.406-.232h.623c.448 0 .895 0 1.328-.013.461 0 .976 0 1.437-.014h.664c.135 0 .243.068.352-.041.108-.109.108-.313.108-.449 0 0 .082-3.171.095-6.683 0-.544.014-1.075.027-1.619 0-.3.014-.585.014-.885 0-.272.027-.571-.054-.844-.028-.068-.055-.122-.095-.177-.041-.054-.082-.109-.068-.177 0-.068.027-.136.068-.19.054-.068.149-.109.244-.109.054 0 .149.014.203.027.135.041.23.082.284.218.068.15.041.313.041.463 0 .19 0 .394.014.585 0 .095 0 .191.013.286 0 .081 0 .177.014.258.054.191.257.232.433.232.177 0 .461.027.637.081.244.068.393.286.339.545-.068.286-.325.34-.542.34h-.041c-.311-.014-.813-.136-.908.259-.054.204-.013.462-.013.68 0 .204.068.408.054.613-.013.517-.027 1.02-.027 1.538-.014.544.014 1.102-.041 1.646 0 0-.054.722.637.695.339-.014.786-.014.895.408.027.082.013.163-.014.231z"/><path d="m19.783 11.882c-.691.027-.623-.49-.623-.49.027-.381.027-3.702.027-3.702 0-.136.041-.368.149-.449.082-.068.136-.028.231-.028.149 0 .284 0 .42-.027.271-.041.474-.177.582-.449.055-.15.082-.313.068-.463-.041-.313-.041-.558-.352-.667-.163-.054-.312-.04-.474-.027-.678.027-.624-.49-.624-.49.054-.381.068-.762 0-1.143-.04-.231-.122-.504-.406-.531-.244-.027-.556-.054-.8.014-.081.027-.122.054-.217.027-.081-.027-.122-.068-.176-.123-.068-.054-.149-.122-.19-.19-.054-.068-.054-.136-.135-.177-.068-.027-.135-.041-.203-.054-.136-.028-.244.108-.353.177-.121.068-.23.136-.365.176-.258.096-.624.137-.895.164-.162.013-.339.013-.501-.014-.244-.027-.461-.068-.705-.082-.284-.013-.596 0-.88.014-.177.014-.38 0-.556.027-.095.014-.136.082-.217.136-.176.109-.393.082-.555-.013-.082-.041-.136-.109-.217-.136-.122-.055-.258-.055-.393-.055-.501.027-1.016.055-1.518.027-.379-.013-.745-.04-1.111-.108-.122-.014-.23-.041-.339-.068-.149-.041-.366-.123-.501-.177-.122-.041-.705-.123-.813-.028-.027.028-.054.068-.068.109-.04.068-.081.136-.135.204-.163.164-.569.096-.786.082-.136 0-.339-.014-.474-.014-.488-.027-.583.3-.583.3l-.027 1.184c0 .218.081.49-.136.612-.189.109-.366.123-.569.123h-.366c-.637.054-.582 1.021-.582 1.021.013.149.135.299.257.367.203.123.474.123.705.095.149-.013.325 0 .46.069.177.081.204.231.19.408 0 .286.081.599.081.898 0 .667.014 1.334.028 2.001 0 .19 0 .381.013.571 0 .177-.054.368-.081.545 0 .082-.014.163-.054.218-.055.068-.122.095-.19.108-.081.014-.149 0-.217 0-1.382-.04-1.206.899-1.206.899.027.871 1.016.762 1.016.762.163-.014.366.027.502.136.054.041.081.095.095.163 0 .028 0 .055.013.082.054.123-.054 1.456-.054 1.456-.027.259.257.463.488.49.122.014.244-.027.366-.027.203-.014.569.014.772.027.555.014 1.423.027 1.978.041.569.014 1.22.027 1.789.041.135 0 .271 0 .406.014.122 0 .244-.014.353.013.095.027.176.095.257.15.244.177.569.313.881.313.163 0 .325-.068.447-.177.068-.068.122-.177.176-.259.041-.04.082-.068.122-.081.136-.028.312.027.447.027.095 0 .204.014.285.014.556.013 1.111.013 1.68.013.596 0 1.274-.013 1.87-.013.312 0 .623-.028.935-.014.244.014.488.014.651-.204.081-.096.135-.232.135-.354l.054-1.456c.095-.436.664-.259.962-.313.461-.082.637-.463.624-.912 0-.871-.868-.803-.868-.803zm-2.642.884v-3.593c0-.49.014-.993.014-1.483 0-.463-.014-.926-.014-1.388v-2.205c0-.014 0-.041.014-.055.04-.122.23-.231.352-.19.176.068.203.34.257.503.068.191.122.354.122.572 0 .204-.013.395-.013.599 0 .354-.014.68-.014 1.034v1.348c0 .489-.013.979-.027 1.469 0 .477-.013.953-.013 1.43 0 .421-.014.843-.014 1.265 0 .313-.013.626-.013.953 0 .313-.028.612-.041.925-.014.177-.095.123-.19.028-.163-.15-.271-.368-.366-.558-.081-.204-.054-.449-.054-.654zm-4.81-.367.054-3.702c-.027-.15.054-4.546.054-4.546.054-.463 1.125-.435 1.125-.435.379.013.759.013 1.125.013.298 0 .582 0 .88-.027.217-.014.556 0 .759-.109.176-.095.434-.231.542 0 .027.055.014.136.014.191 0 .122-.014.231-.014.353-.013.286-.054.559-.054.844 0 .422.013.844.013 1.28v1.606c0 .612-.013 1.238-.013 1.851 0 .571-.014 1.143-.027 1.714 0 .422-.014.844-.014 1.266 0 .164 0 .327-.013.49 0 .136-.095.313-.217.368-.136.054-.298.081-.434.109-.433.081-.975.054-1.422.027-.339-.027-.664-.082-1.003-.082s-.705.068-1.044.136c-.04.014-.094.028-.135.041-.027.014-.054.041-.081.041-.041 0-.082-.014-.109-.027-.027-.014-.108-.082-.108-.109 0-.014.122-1.293.122-1.293zm-4.851-8.711c0-.204.528-.285.704-.245.312.082.705.191 1.03.259.149.027.312.027.461.027.217 0 .434 0 .664-.013.366-.014.745-.028 1.111-.068.501.04.528.707.528.707.122 1.579-.122 9.16-.122 9.16-.013.163-.108.272-.257.177-.108-.082-.176-.095-.298-.109-.108 0-.217-.014-.325-.014-.176 0-.366-.013-.542-.013-.447 0-.895.041-1.328.027-.217 0-.502-.014-.718-.027-.732-.082-1.003-.517-1.003-.517zm-1.152 1.28s.163-1.075.718-1.021c.027 0 .041.68.041.749.013.244.013.489 0 .721 0 .912.054 1.824.04 2.735.014.776 0 1.552-.013 2.341 0 .695-.095 1.389-.109 2.083 0 .503.082 1.089-.379 1.429-.027.027-.203.041-.244.068 0 0-.149.054-.135-.354zm4.932 10.316c-.067.109-.217.123-.338.123h-4.852c-.176 0-.447-.014-.569-.15-.094-.123-.094-.286-.094-.435 0-.218.013-.436.013-.654 0-.326-.013-.708-.284-.898-.217-.15-.502-.123-.759-.136-.271-.014-.569-.15-.583-.408-.014-.205.163-.368.366-.422.19-.055.393-.041.596-.068.203-.028.42-.096.515-.286.095-.177.149-.449.149-.654v-.721c.014-1.075-.041-2.15-.041-3.212 0-.136 0-.272-.067-.381-.109-.204-.353-.272-.583-.272s-.447.013-.65-.055c-.122-.04-.244-.149-.299-.272-.162-.381.434-.49.678-.503.257-.014.528-.014.718-.164.298-.231.271-.667.244-1.034-.027-.368.027-.817.366-.966.149-.055.447 0 .461.163.013.054-.014.122-.027.177-.109.299-.177.626-.204.939 0 .068-.013.136-.013.204-.014.109-.014.231-.014.354v1.987c0 1.075.041 2.164.027 3.239 0 1.075-.067 2.151-.067 3.24v.136c.013.245.054.49.243.612.136.082.448.095.597.095 1.206.014 2.791.028 3.997.041.122 0 .257 0 .352.068.109.055.19.204.122.313zm.149-.585c-.162.027-.325-.054-.487-.082-.109-.027-.217-.054-.326-.068-.149-.027-.284 0-.433-.013h-1.708c-.325 0-.948-.014-1.26 0-.122.013-.271.027-.325-.109-.027-.055-.027-.164 0-.218.257-.49.556-.381.556-.381.121.027.962.177.962.177.108.027.325.027.447.027.515.014 1.016.014 1.531.014h.908c.162 0 .284.095.379.204.095.095.122.218.014.326-.068.041-.176.109-.258.123zm1.125 1.075c-.068.055-.176.123-.257.123-.583 0-.637-.558-.637-.558-.041-.354.162-.708.528-.735h.068c.23 0 .379.313.461.49.094.245.04.517-.163.68zm.135-1.211c-.04-.055-.067-.123-.054-.204 0-.014 0-.027.014-.041.027-.068.122-.123.162-.163.068-.055.163-.123.258-.123.257 0 .542.041.799.054.271.014.542.028.813.028.393.013.827.013 1.22-.028.122-.013.271-.027.379-.054.041-.013.095-.027.136-.041.068-.027.135-.068.203-.081.054-.014.108-.014.163-.028.095-.013.244-.027.338.028 0 0 .461.353.461.558 0 .204-.352.149-.461.136-.636-.068-1.368-.014-2.005 0-.393 0-.799.013-1.192.013-.177 0-.366-.013-.542.014-.068.014-.15.027-.217.027-.149.041-.366.041-.475-.095zm7.616-1.688c-.041.082-.082.164-.176.191-.15.041-.298.041-.448.041h-.298c-.122 0-.379-.014-.46.095-.014.014-.014.027-.027.054-.15.449-.15.994-.177 1.457-.027.34-.162.721-.555.735h-.718c-.488 0-1.044.013-1.545.013-.407 0-.881 0-1.301-.013-.217 0-.42 0-.637-.014-.203 0-.42.014-.623-.014-.109-.013-.258-.095-.258-.217 0 0 0-.232.407-.232h.623c.447 0 .895 0 1.328-.013.718 0 1.491-.055 2.209 0 .068 0 .122.013.19 0 .203-.055.189-.341.189-.504 0 0 .136-3.171.149-6.683 0-.544.014-1.075.027-1.619 0-.3.014-.585.014-.885 0-.272.027-.571-.054-.844-.027-.068-.054-.122-.095-.177-.041-.054-.081-.109-.068-.177 0-.068.027-.136.068-.19.054-.068.149-.109.244-.109.054 0 .149.014.203.027.136.041.258.082.312.218.068.15.04.313.04.463 0 .19 0 .394.014.585 0 .095 0 .191.014.286 0 .081 0 .177.013.258.054.191.258.232.434.232s.366.013.542.054c.244.068.42.286.366.558-.055.259-.339.313-.556.3h-.041c-.311-.014-.718-.109-.813.285-.054.205-.013.463-.013.681v.612c-.014.531-.041 1.062-.054 1.593-.014.531.054 1.061.013 1.592-.013.136.014.286.081.409.299.585 1.274-.014 1.45.707.041.096.027.177-.013.245z"/><path d="m8.32 7.227c.068.122 1.192 3.797 1.192 3.797.488.477.556-.122.556-.122.352-.599.989-3.484.989-3.484l.258-.572c-.082-.245-.692-.191-.692-.191-.271.041-.095.341-.095.341l.177.626-.583 2.109c-.203.517-.379-.177-.379-.177-.61-1.823-.664-2.3-.664-2.3.46-.326.122-.626.122-.626l-1.084-.027c-.407.027-.177.354-.177.354z"/><path d="m13.388 7.105s.095.054.095.176l-.028 3.131-.094.231s-.299.381-.095.408c0 0-.271.177 1.883.205 0 0 .827.149.624-.912 0 0-.095-.381-.38.177 0 0-.095.476-1.152.326 0 0-.23-.204-.23-.449v-1.293s-.027-.326.474-.299c0 0 .556.354.651.204 0 0 .203-.476 0-.762 0 0-.271-.027-.298.081 0 0-.177.354-.678.15 0 0-.23-.476-.095-.857 0 0-.054-.735.447-.681 0 0 .583.123.651.3 0 0 .149.353.298-.055l-.149-.503s-.082-.205-.231-.15c0 0-1.002.15-1.124.027l-.8.095s-.122.3.231.45z"/><path d="m5.461 25.288c.203-.041.284-.191.284-.313v-2.859c0-.149-.081-.244-.298-.285v-.15c.095 0 .515.014.61.014.081 0 .515-.014.61-.014v.15c-.217.054-.312.149-.312.285v2.981h1.016c.339 0 .488-.163.651-.463l.149.041-.095.776c-.352-.041-.542-.041-.922-.041h-1.111c-.094 0-.447.014-.582.014z"/><path d="m9.16 25.288c.203-.041.284-.191.284-.313v-2.872c0-.109-.081-.245-.284-.286v-.15h2.263c.054 0 .149-.013.217-.04h.149l-.014.735h-.162c-.082-.246-.258-.368-.529-.368h-1.03v1.307h.894c.15 0 .245-.068.326-.218h.149c-.014.122-.014.299-.014.367v.368h-.135c-.081-.136-.176-.218-.326-.218h-.894v1.484h1.016c.353 0 .529-.137.637-.341l.149.041-.094.667c-.353-.041-.542-.041-.922-.041h-1.097c-.095 0-.448.014-.583.014z"/><path d="m12.9 25.288c.257-.109.474-.313.637-.531l.867-1.225-.84-1.266c-.122-.177-.298-.394-.529-.435v-.15c.149 0 .488.014.583.014s.434-.014.583-.014v.136c-.095.041-.109.068-.109.109 0 .027.014.109.082.204l.596.898.623-.871c.068-.081.081-.19.081-.245 0-.013-.027-.068-.149-.081v-.15c.149 0 .434.014.529.014.081 0 .366-.014.528-.014v.15c-.244.068-.46.231-.609.435l-.773 1.075.935 1.443c.136.218.312.436.542.517v.15c-.149 0-.488-.014-.582-.014-.095 0-.434.014-.583.014v-.15c.068-.027.108-.081.108-.122 0-.055-.027-.136-.068-.204l-.718-1.103-.745 1.048c-.054.082-.081.15-.081.245 0 .041.013.082.162.136v.15c-.149 0-.433-.014-.528-.014s-.38.014-.529.014v-.163z"/><path d="m19.878 25.288c.203-.041.285-.191.285-.313v-2.872c0-.109-.082-.245-.285-.286v-.15h2.263c.054 0 .149-.013.217-.04h.149l-.014.735h-.149c-.081-.246-.257-.368-.528-.368h-1.016v1.307h.88c.15 0 .244-.068.326-.218h.149c-.014.122-.014.299-.014.367v.368h-.149c-.081-.136-.176-.218-.325-.218h-.894v1.484h1.016c.352 0 .528-.137.637-.341l.149.041-.095.667c-.352-.041-.542-.041-.921-.041h-1.098c-.095 0-.447.014-.583.014z"/><path d="m24.702 25.288c.203-.041.325-.191.325-.3v-2.98h-.731c-.217 0-.38.149-.448.422h-.149l-.013-.79c.257.014.488.041 1.667.041 1.178 0 1.395-.027 1.666-.041l-.027.79h-.162c-.082-.3-.231-.422-.448-.422h-.731v2.98c0 .109.122.245.325.3v.149c-.122 0-.556-.013-.651-.013-.081 0-.487.013-.623.013z"/><path d="m30.529 25.288c.217-.041.298-.15.298-.286v-2.886c0-.149-.081-.244-.298-.285v-.15c.095 0 .528.014.623.014.081 0 .501-.014.61-.014v.15c-.217.054-.312.149-.312.285v2.886c0 .15.082.231.312.286v.149c-.095 0-.515-.013-.61-.013s-.528.013-.623.013z"/><path d="m33.225 22.116c0-.122-.081-.244-.271-.299v-.15c.122 0 .488.014.596.014.082 0 .434-.014.57-.014v.15c-.19.041-.258.177-.258.299v2.11c0 .626.447.953.921.953.57 0 1.139-.3 1.139-.953v-2.11c0-.149-.082-.244-.298-.285v-.15c.095 0 .393.014.487.014.082 0 .38-.014.488-.014v.15c-.217.068-.311.149-.311.285v1.96c0 .94-.556 1.416-1.613 1.416-.989 0-1.436-.572-1.436-1.416v-1.96z"/><path d="m37.548 24.607h.149c.054.177.19.34.284.409.163.108.42.163.624.163.433 0 .745-.163.745-.572 0-.204-.054-.367-.203-.476-.325-.218-.746-.354-1.098-.531-.325-.163-.596-.435-.596-.926 0-.748.65-1.075 1.369-1.075.284 0 .623.082.975.068l.027.763h-.149c-.135-.354-.515-.545-.894-.545-.434 0-.732.245-.732.585 0 .286.136.45.325.558.339.191.786.341 1.125.545.257.163.434.408.434.789 0 .708-.556 1.116-1.315 1.116-.352 0-.677-.081-1.07-.177z"/><path d="m41.992 25.288c.204-.041.325-.191.325-.3v-2.98h-.731c-.217 0-.38.149-.447.422h-.149l-.014-.79c.257.014.488.041 1.667.041s1.395-.027 1.666-.041l-.027.79h-.149c-.081-.3-.23-.422-.447-.422h-.732v2.98c0 .109.122.245.326.3v.149c-.122 0-.556-.013-.651-.013-.081 0-.488.013-.623.013v-.149z"/><path d="m45.407 25.288c.217-.041.298-.15.298-.286v-2.886c0-.149-.081-.244-.298-.285v-.15c.095 0 .528.014.623.014.082 0 .502-.014.61-.014v.15c-.217.054-.312.149-.312.285v2.886c0 .15.082.231.312.286v.149c-.095 0-.515-.013-.61-.013s-.528.013-.623.013z"/><path d="m48.781 25.288c.203-.041.325-.191.325-.3v-2.98h-.731c-.217 0-.38.149-.448.422h-.149l-.013-.79c.257.014.488.041 1.666.041 1.179 0 1.396-.027 1.667-.041l-.027.79h-.149c-.081-.3-.23-.422-.447-.422h-.732v2.98c0 .109.122.245.325.3v.149c-.122 0-.555-.013-.65-.013-.081 0-.488.013-.623.013v-.149z"/><path d="m52.182 25.288c.217-.041.298-.15.298-.286v-2.886c0-.149-.081-.244-.298-.285v-.15c.095 0 .529.014.623.014.082 0 .502-.014.61-.014v.15c-.217.054-.312.149-.312.285v2.886c0 .15.082.231.312.286v.149c-.095 0-.515-.013-.61-.013-.094 0-.528.013-.623.013z"/><path d="m54.201 25.288c.23-.055.298-.191.38-.381l1.165-2.818c.054-.122.122-.449.122-.449h.393s.081.327.122.449l1.084 2.818c.081.204.149.326.379.381v.149c-.149 0-.488-.013-.569-.013s-.447.013-.596.013v-.149c.162-.055.19-.136.176-.218 0-.041-.041-.163-.068-.204l-.203-.504h-1.369l-.203.504c-.013.041-.054.163-.068.204-.013.082.041.163.217.218v.149c-.122 0-.393-.013-.461-.013-.081 0-.365.013-.514.013v-.149zm2.277-1.252-.529-1.375-.569 1.375z"/><path d="m5.583 44.791c-2.033-4.954-3.456-10.044-4.201-15.08 3.225.721 6.26 1.728 9.038 2.981-1.883 2.926-3.997 7.131-4.837 12.099z" fill="#90172b" transform="matrix(1.02797 0 0 1.02797 -.16506 -1.04193)"/><path d="m52.575 32.692c2.778-1.253 5.813-2.26 9.038-2.981-.759 5.022-2.168 10.112-4.2 15.08-.84-4.968-2.968-9.173-4.838-12.099z" fill="#90172b" transform="matrix(1.02797 0 0 1.02797 -1.59696 -1.04193)"/><path d="m48.781 28.935c.352.395 1.423 1.593 2.683 3.444-2.52 1.211-4.824 2.626-6.843 4.232-1.463 1.157-2.832 2.409-4.119 3.757-.854-1.756-1.843-3.471-2.968-5.104-1.639-2.409-3.374-4.532-5.162-6.315h16.409z" fill="#90172b" transform="matrix(1.05614 0 0 1.05614 -2.35317 -1.94525)"/><path d="m25.447 35.25c-1.111 1.647-2.1 3.348-2.967 5.104-1.287-1.334-2.656-2.599-4.119-3.756-2.019-1.606-4.323-3.022-6.843-4.233 1.246-1.851 2.317-3.049 2.669-3.443h16.396c-1.761 1.796-3.496 3.919-5.136 6.328z" fill="#90172b" transform="matrix(1.02113 0 0 1.02113 -.444696 -.731734)"/><path d="m52.155 32.052c-.962-1.429-1.816-2.491-2.358-3.117h11.843c-3.401.749-6.585 1.797-9.485 3.117z" fill="#770f20" transform="matrix(1.07619 0 0 1.07619 -4.24506 -2.32323)"/><path d="m10.84 32.052c-2.9-1.32-6.097-2.382-9.471-3.117h11.842c-.555.626-1.409 1.701-2.371 3.117z" fill="#770f20" transform="matrix(1.04872 0 0 1.04872 -.355176 -1.48567)"/><path d="m0 0v22.132c.108 8.334 2.196 17.143 6.005 25.477 3.402 7.436 8.471 14.165 14.652 19.467 3.564 3.059 7.156 5.438 10.68 7.056l.163.068.163-.068c3.524-1.618 7.129-3.997 10.68-7.056 6.181-5.302 11.25-12.031 14.653-19.467 3.822-8.32 5.896-17.13 6.004-25.477v-22.132zm36.935 35.632c1.152 1.686 2.155 3.453 3.036 5.261-3.293 3.575-5.95 7.722-7.78 12.208-.244.585-.461 1.183-.677 1.767-.217-.598-.434-1.182-.678-1.767-1.83-4.5-4.487-8.633-7.78-12.208.867-1.808 1.884-3.575 3.036-5.261 1.721-2.529 3.538-4.731 5.422-6.553 1.87 1.822 3.7 4.024 5.421 6.553zm-4.54-6.73h16.4c.353.395 1.423 1.591 2.684 3.44-2.521 1.21-4.825 2.624-6.845 4.228-1.464 1.155-2.833 2.406-4.12 3.752-.854-1.754-1.844-3.467-2.969-5.098-1.626-2.42-3.361-4.541-5.15-6.322zm-6.94 6.308c-1.112 1.645-2.101 3.345-2.969 5.098-1.287-1.332-2.656-2.596-4.12-3.752-2.02-1.604-4.324-3.018-6.845-4.228 1.247-1.849 2.318-3.045 2.67-3.439h16.401c-1.762 1.794-3.497 3.915-5.137 6.321zm-14.612-3.194c-2.9-1.319-6.099-2.379-9.474-3.114h11.846c-.555.626-1.409 1.7-2.372 3.114zm-5.259 12.724c-2.033-4.948-3.456-10.033-4.201-15.063 3.225.721 6.262 1.727 9.04 2.977-1.884 2.923-3.998 7.124-4.839 12.086zm5.531-11.759c2.507 1.196 4.798 2.596 6.79 4.187 1.505 1.196 2.928 2.501 4.243 3.888-2.142 4.595-3.402 9.516-3.741 14.546-3.064-4.268-7.062-7.49-12.213-9.829.692-5.301 2.955-9.774 4.921-12.792zm-4.419 14.315c-.095-.19-.176-.394-.271-.584 5.408 2.569 9.149 5.968 11.914 10.1-.095 2.475.027 4.99.393 7.491-5.002-4.853-9.136-10.672-12.036-17.007zm14.462 19.209c-.515-.448-1.03-.897-1.531-1.359-.407-2.406-.583-4.799-.556-7.192 1.911 3.141 3.348 6.675 4.581 10.577-.84-.639-1.667-1.319-2.494-2.026zm3.511 2.787c-1.139-3.738-2.779-8.456-5.571-12.684.23-5.166 1.45-10.236 3.605-14.967 3.145 3.453 5.666 7.45 7.428 11.759.352.87.678 1.767.976 2.665-1.667 5.206-2.291 10.74-1.803 16.191-1.531-.856-3.077-1.835-4.635-2.964zm8.227 3.385c-.461.245-.935.476-1.396.694-.461-.218-.935-.449-1.396-.694-.529-5.152-.041-10.372 1.396-15.334 1.45 4.962 1.925 10.196 1.396 15.334zm.8-.421c.488-5.451-.122-10.985-1.803-16.191.298-.898.624-1.781.976-2.665 1.762-4.323 4.283-8.306 7.428-11.759 2.155 4.717 3.375 9.788 3.605 14.967-2.792 4.228-4.432 8.946-5.571 12.684-1.545 1.129-3.09 2.108-4.635 2.964zm9.691-7.124c-.501.463-1.016.925-1.532 1.36-.826.707-1.667 1.387-2.494 2.025 1.234-3.901 2.671-7.436 4.582-10.576.027 2.392-.149 4.799-.556 7.191zm12.931-17.836c-2.901 6.335-7.035 12.154-12.036 17.007.352-2.501.488-5.003.393-7.491 2.765-4.132 6.492-7.531 11.914-10.1-.095.19-.176.38-.271.584zm-11.711 8.293c-.339-5.03-1.613-9.951-3.741-14.547 1.315-1.386 2.724-2.691 4.242-3.888 2.007-1.59 4.284-2.99 6.805-4.187 1.965 3.032 4.215 7.491 4.92 12.793-5.151 2.352-9.149 5.574-12.226 9.829zm12.822-10.849c-.84-4.962-2.955-9.163-4.839-12.072 2.779-1.251 5.815-2.257 9.041-2.977-.759 5.003-2.169 10.087-4.202 15.049zm-5.259-12.724c-.962-1.428-1.816-2.488-2.358-3.114h11.846c-3.402.748-6.587 1.795-9.488 3.114zm10.085-9.884c-.028 1.985-.163 3.997-.421 6.023h-60.668c-.244-2.026-.393-4.038-.421-6.009v-3.222h61.51zm-61.496-3.969v-17.402h61.509v17.402z"/></g></svg>